<svg id="visual" viewBox="0 0 900 600" width="900" height="600" xmlns="http://www.w3.org/2000/svg" xmlns:xlink="http://www.w3.org/1999/xlink" version="1.1"><g transform="translate(485.8055516079411 319.216071566032)"><path d="M109.3 -178.3C139.3 -150.8 159.7 -116.5 173.4 -80.9C187 -45.2 194 -8.2 187.8 26.2C181.6 60.5 162.2 92.1 139.3 123.5C116.4 154.8 90.1 185.8 57.3 195.7C24.5 205.7 -14.7 194.5 -59.8 188.2C-104.9 182 -156 180.7 -196.5 157.3C-237 133.9 -267 88.3 -260.9 45.4C-254.8 2.5 -212.7 -37.7 -188.3 -83.8C-163.8 -129.9 -157.1 -181.9 -128.6 -210.1C-100.2 -238.2 -50.1 -242.6 -5.2 -234.5C39.6 -226.4 79.3 -205.7 109.3 -178.3" fill="#191970"></path></g></svg>